<?xml version="1.0" standalone="no"?>
<!DOCTYPE svg PUBLIC "-//W3C//DTD SVG 20010904//EN"
 "http://www.w3.org/TR/2001/REC-SVG-20010904/DTD/svg10.dtd">
<svg version="1.0" xmlns="http://www.w3.org/2000/svg"
 width="1600.000000pt" height="1600.000000pt" viewBox="0 0 1600.000000 1600.000000"
 preserveAspectRatio="xMidYMid meet">
<metadata>
Created by potrace 1.16, written by Peter Selinger 2001-2019
</metadata>
<g transform="translate(0.000000,1600.000000) scale(0.100000,-0.100000)"
fill="#000000" stroke="none">
<path d="M3689 13524 c-520 -94 -915 -505 -988 -1029 -6 -45 -10 -1626 -10
-4344 -1 -3814 1 -4284 14 -4378 27 -177 89 -338 193 -498 60 -92 227 -258
322 -320 149 -97 338 -171 497 -194 43 -6 1619 -10 4369 -10 3913 -1 4309 0
4395 15 441 76 797 379 941 804 62 183 58 -144 58 4581 0 4216 0 4319 -19
4415 -90 465 -419 813 -890 942 l-96 27 -4355 2 c-3656 1 -4367 -1 -4431 -13z
m1685 -1508 c164 -45 293 -117 413 -230 207 -195 307 -428 304 -711 -4 -502
-366 -897 -867 -948 -95 -9 -127 -8 -214 6 -56 9 -139 30 -184 45 -223 77
-428 260 -535 477 -279 570 48 1240 669 1371 86 18 333 12 414 -10z m4981
-2426 c229 -25 464 -90 649 -178 466 -223 785 -646 910 -1208 64 -285 60 -142
66 -2137 l5 -1817 -802 0 -803 0 0 1428 c0 913 -4 1467 -10 1537 -31 322 -133
572 -297 726 -204 193 -571 252 -911 148 -238 -74 -431 -259 -531 -510 -37
-92 -76 -251 -86 -345 -4 -38 -9 -76 -11 -84 -1 -8 -3 -664 -3 -1457 l-1
-1443 -775 0 -775 0 0 2595 0 2595 23 5 c12 3 360 4 772 3 l750 -3 3 -345 2
-344 37 54 c179 269 482 518 780 643 166 70 382 127 528 140 90 8 396 6 480
-3z m-4410 -146 c13 -6 15 -288 15 -2600 l0 -2594 -805 0 -805 0 0 2600 0
2600 790 0 c434 0 796 -3 805 -6z"/>
</g>
</svg>
